<svg version="1.1" id="Layer_1" xmlns="http://www.w3.org/2000/svg" xmlns:xlink="http://www.w3.org/1999/xlink" x="0px" y="0px" viewBox="0 0 216 62.4" style="enable-background:new 0 0 216 62.4;" xml:space="preserve" width="216"  height="62.4" >
<style type="text/css">
	.st0{fill:#49B85B;}
	.st1{fill:#FDE24B;}
	.st2{fill:#EF412E;}
	.st3{fill:#2CB8E6;}
	.st4{fill:#7F3F98;}
	.st5{fill:#A7A9AC;}
</style>
<path class="st0" d="M85.4,56.9l-12.6-0.6c-0.4,0-0.6-0.4-0.6-0.8l0.4-34.8c0-0.4,0.3-0.8,0.7-0.8l15-0.1c0.4,0,0.7,0.4,0.6,0.9  L86,56.2C86,56.6,85.7,56.9,85.4,56.9"/>
<path class="st1" d="M57.3,34l-4.5-3.2c-0.3-0.2-0.7-0.1-1,0.2L32.1,53.1c-0.3,0.3-0.3,0.8-0.1,1l5.7,5.3c0.3,0.2,0.8,0.1,1.1-0.3  L57.3,35C57.6,34.6,57.6,34.2,57.3,34"/>
<path class="st2" d="M65.8,58.6l4.3-2.5c0.3-0.1,0.4-0.5,0.2-0.9l-9-19.3c0,0,0,0,0,0c-0.2-0.4-0.7-0.5-1-0.2l-4.8,4.5  c-0.3,0.1-0.4,0.6-0.2,0.9L65,58.3C65.2,58.6,65.5,58.8,65.8,58.6"/>
<path class="st3" d="M28.9,59l-15-1.3c-0.3,0-0.6-0.3-0.6-0.7L8.7,19.1c-0.1-0.5,0.2-0.9,0.6-0.9l20.1,0.3c0.4,0,0.6,0.4,0.6,0.8  l-0.5,38.9C29.6,58.7,29.3,59,28.9,59"/>
<path class="st4" d="M28,14.7l-11.2-11c-0.3-0.3-0.7-0.2-0.9,0.2l-6.5,11c-0.3,0.5,0,1.3,0.5,1.3h17.7C28.3,16.2,28.5,15.2,28,14.7"/>
<path class="st3" d="M88.2,17.5l-14.7,0.1c-0.4,0-0.7-0.3-0.7-0.7l0.9-10c0-0.4,0.4-0.7,0.8-0.6l14.1,1.7c0.3,0.1,0.5,0.3,0.5,0.7  l-0.2,8.2C88.9,17.3,88.6,17.5,88.2,17.5"/>
<g>
	<path class="st5" d="M108.8,50.3c0.5,0.4,1,0.9,1.3,1.5c0,0.1,0,0.2-0.1,0.3l-0.9,0.4c-0.1,0-0.2,0-0.3-0.1c-0.4-1-1.1-1.5-2.2-1.5   c-0.9,0-1.5,0.3-2,0.9c-0.5,0.6-0.7,1.4-0.7,2.4c0,1,0.2,1.8,0.7,2.4s1.2,0.9,2,0.9c0.7,0,1.2-0.2,1.6-0.5c0.4-0.3,0.6-0.6,0.7-1.1   c0-0.1,0.1-0.2,0.2-0.1l0.9,0.3c0.1,0,0.2,0.2,0.1,0.3c-0.3,0.7-0.7,1.3-1.3,1.7c-0.6,0.4-1.4,0.7-2.3,0.7c-1.3,0-2.3-0.4-3-1.2   c-0.7-0.8-1.1-1.9-1.1-3.3c0-1.4,0.4-2.5,1.1-3.3c0.7-0.8,1.7-1.2,3-1.2C107.5,49.7,108.3,49.9,108.8,50.3"/>
	<path class="st5" d="M114.4,51.6c-0.5,0.4-0.7,1.1-0.8,1.9h5.2c-0.1-0.8-0.4-1.4-0.8-1.9c-0.4-0.4-1-0.7-1.7-0.7   C115.5,50.9,114.9,51.1,114.4,51.6 M120,54.7h-6.4c0.1,0.9,0.4,1.5,0.9,2c0.5,0.5,1.1,0.7,1.9,0.7c0.6,0,1.1-0.1,1.6-0.3   c0.3-0.2,0.6-0.4,0.8-0.8c0-0.1,0.2-0.1,0.3-0.1l0.8,0.4c0.1,0.1,0.1,0.2,0.1,0.3c-0.3,0.5-0.7,0.9-1.3,1.2   c-0.6,0.3-1.3,0.5-2.2,0.5c-1.3,0-2.3-0.4-3-1.2c-0.7-0.8-1.1-1.9-1.1-3.3c0-1.4,0.3-2.5,1-3.3c0.7-0.8,1.7-1.2,3-1.2   c0.8,0,1.5,0.2,2.1,0.5c0.6,0.4,1,0.8,1.3,1.4c0.3,0.6,0.4,1.3,0.4,2C120,54,120,54.3,120,54.7"/>
	<path class="st5" d="M129.2,50.5c0.6,0.6,0.9,1.4,0.9,2.4v5.3c0,0.1-0.1,0.2-0.2,0.2h-1c-0.1,0-0.2-0.1-0.2-0.2v-4.8   c0-0.9-0.2-1.5-0.6-1.9c-0.4-0.4-0.9-0.6-1.5-0.6c-0.5,0-0.9,0.1-1.3,0.3c-0.4,0.2-0.7,0.5-1,1c-0.3,0.4-0.4,1-0.4,1.7v4.4   c0,0.1-0.1,0.2-0.2,0.2h-1c-0.1,0-0.2-0.1-0.2-0.2v-8.2c0-0.1,0.1-0.2,0.2-0.2h0.8c0.1,0,0.2,0.1,0.2,0.2l0.1,1.2   c0.3-0.5,0.7-0.9,1.2-1.1c0.5-0.2,1.1-0.4,1.7-0.4C127.8,49.7,128.5,50,129.2,50.5"/>
	<path class="st5" d="M138.3,57.7c0,0.1,0,0.2-0.1,0.2c-0.6,0.4-1.3,0.7-2.1,0.7c-0.7,0-1.3-0.2-1.7-0.6c-0.4-0.4-0.7-1-0.7-1.7   v-5.2h-1.5c-0.1,0-0.2-0.1-0.2-0.2v-0.8c0-0.1,0.1-0.2,0.2-0.2h1.5V48c0-0.1,0.1-0.2,0.1-0.2l1-0.3c0.1,0,0.2,0.1,0.2,0.2v2.2h3   c0.1,0,0.2,0.1,0.2,0.2v0.8c0,0.1-0.1,0.2-0.2,0.2h-3v5c0,0.4,0.1,0.7,0.4,0.9c0.2,0.2,0.5,0.3,0.9,0.3c0.5,0,1-0.2,1.5-0.6   L138.3,57.7z"/>
	<path class="st5" d="M141.9,51.6c-0.5,0.4-0.7,1.1-0.8,1.9h5.2c-0.1-0.8-0.4-1.4-0.8-1.9c-0.4-0.4-1-0.7-1.7-0.7   C143,50.9,142.4,51.1,141.9,51.6 M147.5,54.7h-6.4c0.1,0.9,0.4,1.5,0.9,2c0.5,0.5,1.1,0.7,1.9,0.7c0.6,0,1.1-0.1,1.6-0.3   c0.3-0.2,0.6-0.4,0.8-0.8c0-0.1,0.2-0.1,0.3-0.1l0.8,0.4c0.1,0.1,0.1,0.2,0.1,0.3c-0.3,0.5-0.7,0.9-1.3,1.2   c-0.6,0.3-1.3,0.5-2.2,0.5c-1.3,0-2.3-0.4-3-1.2c-0.7-0.8-1.1-1.9-1.1-3.3c0-1.4,0.3-2.5,1-3.3c0.7-0.8,1.7-1.2,3-1.2   c0.8,0,1.5,0.2,2.1,0.5c0.6,0.4,1,0.8,1.3,1.4c0.3,0.6,0.4,1.3,0.4,2C147.6,54,147.5,54.3,147.5,54.7"/>
	<path class="st5" d="M155.1,49.9l-0.2,1.1c0,0.1-0.1,0.2-0.3,0.1c-0.2-0.1-0.5-0.1-0.9-0.1c-0.4,0-0.7,0.1-1.1,0.3   c-0.3,0.2-0.6,0.5-0.9,1c-0.2,0.4-0.3,0.9-0.3,1.5v4.4c0,0.1-0.1,0.2-0.2,0.2h-1c-0.1,0-0.2-0.1-0.2-0.2v-8.2   c0-0.1,0.1-0.2,0.2-0.2h0.8c0.1,0,0.2,0.1,0.2,0.2l0.2,1.2c0.5-1,1.4-1.6,2.7-1.6C154.6,49.7,154.9,49.8,155.1,49.9"/>
</g>
<g>
	<path class="st5" d="M105.6,18.4c0,0.1,0,0.2-0.1,0.2c-0.6,0.5-1.3,0.7-2.1,0.7c-0.7,0-1.3-0.2-1.7-0.6c-0.4-0.4-0.7-1-0.7-1.8   v-5.3h-1.5c-0.1,0-0.2-0.1-0.2-0.2v-0.8c0-0.1,0.1-0.2,0.2-0.2h1.5V8.5c0-0.1,0.1-0.2,0.1-0.2l1-0.3c0.1,0,0.2,0.1,0.2,0.2v2.2h3   c0.1,0,0.2,0.1,0.2,0.2v0.8c0,0.1-0.1,0.2-0.2,0.2h-3v5.1c0,0.4,0.1,0.7,0.4,0.9c0.2,0.2,0.6,0.3,0.9,0.3c0.6,0,1-0.2,1.5-0.6   L105.6,18.4z"/>
	<path class="st5" d="M114.8,11.1c0.6,0.6,1,1.4,1,2.5v5.4c0,0.1-0.1,0.2-0.2,0.2h-1c-0.1,0-0.2-0.1-0.2-0.2v-4.9   c0-0.9-0.2-1.6-0.6-2c-0.4-0.4-0.9-0.6-1.6-0.6c-0.5,0-0.9,0.1-1.3,0.3c-0.4,0.2-0.7,0.5-1,1c-0.3,0.5-0.4,1-0.4,1.7v4.4   c0,0.1-0.1,0.2-0.2,0.2h-1c-0.1,0-0.2-0.1-0.2-0.2V6.6c0-0.1,0.1-0.2,0.2-0.2h1c0.1,0,0.2,0.1,0.2,0.2v5.1c0.3-0.5,0.7-0.9,1.2-1.1   c0.5-0.2,1-0.4,1.7-0.4C113.3,10.3,114.2,10.6,114.8,11.1"/>
	<path class="st5" d="M120.1,12.2c-0.5,0.5-0.8,1.1-0.9,1.9h5.3c-0.1-0.8-0.4-1.4-0.8-1.9c-0.4-0.5-1-0.7-1.8-0.7   C121.2,11.5,120.6,11.7,120.1,12.2 M125.8,15.3h-6.6c0.1,0.9,0.4,1.6,0.9,2.1c0.5,0.5,1.2,0.7,2,0.7c0.6,0,1.2-0.1,1.6-0.3   c0.4-0.2,0.6-0.4,0.8-0.8c0.1-0.1,0.2-0.1,0.3-0.1l0.8,0.4c0.1,0.1,0.1,0.2,0.1,0.3c-0.3,0.5-0.8,0.9-1.3,1.2   c-0.6,0.3-1.3,0.5-2.2,0.5c-1.3,0-2.3-0.4-3.1-1.2c-0.7-0.8-1.1-1.9-1.1-3.3c0-1.4,0.4-2.5,1.1-3.3c0.7-0.8,1.7-1.2,3-1.2   c0.8,0,1.5,0.2,2.1,0.5c0.6,0.4,1,0.8,1.3,1.5c0.3,0.6,0.5,1.3,0.5,2.1C125.9,14.7,125.9,15,125.8,15.3"/>
</g>
<g>
	<path class="st4" d="M112.9,43.2l-7.9,0.1c-0.2,0-0.3-0.1-0.3-0.3l-5-19.3c-0.1-0.2,0.1-0.4,0.3-0.4l6.1-0.1c0.2,0,0.3,0.1,0.3,0.3   l2.8,13.3l2.9-11.3c0-0.1,0.2-0.3,0.3-0.3l5.6-0.1c0.2,0,0.3,0.1,0.3,0.3l3.2,12.4l2.7-15.8c0-0.2,0.2-0.3,0.3-0.3l4.6,0   c0.2,0,0.4,0.2,0.3,0.4l-4.2,20.4c0,0.2-0.2,0.3-0.3,0.3l-6.3,0.1c-0.2,0-0.3-0.1-0.3-0.3l-3-12l-2.2,12.2   C113.2,43,113.1,43.2,112.9,43.2"/>
	<path class="st4" d="M137.5,39.1c0.5-0.3,0.8-0.8,0.9-1.5l0.2-1.6l-2.2,0.3c-1.4,0.2-2.1,0.7-2.2,1.6c0,0.5,0.1,0.8,0.3,1.1   c0.3,0.3,0.6,0.4,1.1,0.5C136.4,39.5,137,39.4,137.5,39.1 M145.7,40.5l-0.7,2.8c0,0.1-0.1,0.2-0.2,0.2c-0.6,0.3-1.3,0.4-1.9,0.3   c-1.1-0.1-2-0.4-2.6-1c-0.7-0.5-1.1-1.2-1.2-2.1c-0.5,0.8-1.2,1.3-2.1,1.7c-0.9,0.4-2,0.5-3.3,0.4c-1.5-0.2-2.5-0.6-3.2-1.4   c-0.7-0.8-1-1.8-0.8-3.1c0.1-1.4,0.7-2.4,1.7-3.2c1-0.7,2.5-1.2,4.5-1.5l3.1-0.4c0,0,0.2-2.1-0.5-2.8c-0.3-0.3-0.6-0.6-1.2-0.6   c-0.6-0.1-1.1,0.1-1.5,0.4c-0.3,0.2-0.6,0.7-0.8,1.3c-0.1,0.2-0.3,0.3-0.5,0.2l-3.4-1.4c-0.2-0.1-0.2-0.2-0.2-0.4   c0.4-1.5,0.8-2.1,2-2.9c1.3-0.8,3-1.1,5.1-0.9c4.8,0.5,7,2.9,6.5,7.2l-0.6,5.2c-0.1,0.9,0.2,1.3,0.9,1.4c0.1,0,0.3,0,0.4,0   C145.6,40,145.8,40.3,145.7,40.5"/>
	<path class="st4" d="M159.2,26.5l-0.3,4.5c0,0.2-0.2,0.4-0.4,0.3c-0.1,0-0.3-0.1-0.4-0.1c-0.4-0.1-0.7-0.1-1.2-0.1   c-1,0-1.7,0.3-2.3,0.9c-0.6,0.6-0.8,1.3-0.8,2.3l0.4,8.1c0,0.2-0.1,0.3-0.3,0.4l-4.8,0.2c-0.2,0-0.3-0.1-0.4-0.3l-1.4-15.3   c0-0.2,0.1-0.4,0.3-0.4l4.9-0.5c0.2,0,0.4,0.1,0.4,0.3l0.3,3.3c0.3-1.3,0.8-2.3,1.6-3c0.7-0.7,1.7-1.1,2.9-1.2c0.6,0,1.1,0,1.5,0.2   C159.1,26.2,159.2,26.3,159.2,26.5"/>
	<path class="st4" d="M173.1,27.1l-0.4,4.5c0,0.2-0.2,0.4-0.5,0.3c-0.1,0-0.3-0.1-0.4-0.1c-0.4-0.1-0.7-0.1-1.1-0.1   c-1,0-1.8,0.3-2.3,0.8c-0.6,0.5-0.9,1.3-0.9,2.3l0.1,8.1c0,0.2-0.1,0.3-0.3,0.3l-4.8,0.1c-0.2,0-0.3-0.1-0.4-0.3l-1-15.7   c0-0.2,0.1-0.4,0.3-0.4l4.8-0.2c0.2,0,0.3,0.1,0.4,0.3l0.3,3.5c0.3-1.3,0.9-2.2,1.7-2.9c0.8-0.7,1.7-1.1,2.9-1.1   c0.6,0,1.1,0.1,1.5,0.2C173,26.9,173.1,27,173.1,27.1"/>
	<path class="st4" d="M179.5,32c-0.3,0.6-0.4,1.7-0.3,2.6l5.2-1.2c-0.4-1-0.8-1.7-1.3-2.2c-0.5-0.4-1.1-0.5-1.9-0.4   C180.3,31.1,179.8,31.4,179.5,32 M189.2,35l-9.5,2.2c0.3,0.8,0.7,1.3,1.2,1.6c0.5,0.2,1.1,0.3,1.9,0.1c1.1-0.2,1.7-0.8,1.9-1.6   c0-0.2,0.2-0.3,0.4-0.3l4.3,0.8c0.2,0,0.3,0.2,0.3,0.4c-0.1,1.2-0.5,1.8-1.5,2.7c-1.1,1-2.5,1.7-4.4,2.1c-2.7,0.6-4.9,0.4-6.6-0.6   c-1.7-1-2.9-2.7-3.4-5.2c-0.6-2.4-0.3-4.5,0.8-6.2c1.1-1.7,2.9-2.8,5.4-3.4c2.5-0.6,4.5-0.3,6.1,0.7c1.6,1,2.7,2.6,3.2,4.9   c0.1,0.6,0.2,1.1,0.2,1.5C189.5,34.9,189.3,35,189.2,35"/>
	<path class="st4" d="M206.5,29.7c0.8,1,1.1,2.4,1,4l-1.1,9.9c0,0.2-0.2,0.3-0.4,0.3l-5.3-0.9c-0.2,0-0.3-0.2-0.3-0.4l0.7-7.8   c0.1-0.8,0-1.5-0.2-1.8c-0.2-0.4-0.6-0.6-1.1-0.6c-0.7-0.1-1.2,0.1-1.6,0.6c-0.4,0.5-0.7,1.2-0.8,2.2l-0.7,7.8   c0,0.2-0.2,0.3-0.4,0.3l-5-0.7c-0.2,0-0.3-0.2-0.3-0.4l0.8-14.6c0-0.2,0.2-0.3,0.4-0.3l4.9,0.4c0.2,0,0.3,0.2,0.3,0.4l-0.1,2.9   c0.6-1.1,1.3-1.9,2.3-2.4c1-0.5,2.1-0.7,3.4-0.6C204.5,28.1,205.7,28.6,206.5,29.7"/>
</g>
</svg>