<svg width="90" height="63" xmlns="http://www.w3.org/2000/svg" xmlns:svg="http://www.w3.org/2000/svg" version="1.2" viewBox="88.673 8.024 122.053 51.723"><title>wclogoname-svg</title><style>.s0 { fill: #49b85b }
		.s1 { fill: #fde24b }
		.s2 { fill: #ef412e }
		.s3 { fill: #2cb8e6 }
		.s4 { fill: #7f3f98 }</style><g class="layer"><title>Layer 1</title><g id="Layer"><path class="s4" d="M132.858 8.52v4.954q-3.765 -0.099 -7.331 -0.099v12.384h-5.944V13.375q-3.468 0 -7.232 0.099V8.52zm17.239 0 1.783 10.7 1.288 -10.7h5.845l-3.269 17.239h-7.232l-1.684 -9.61 -1.882 9.61h-6.935l-3.17 -17.239h5.746l1.189 10.601 1.981 -10.601zm19.815 17.437q-5.35 0 -7.926 -2.279t-2.576 -6.44q0 -4.26 2.576 -6.737t7.926 -2.477q7.53 0 10.006 5.152 -2.081 0.694 -4.954 2.18 -0.694 -1.288 -2.18 -1.981 -1.486 -0.594 -3.071 -0.594 -2.279 0 -3.369 1.189t-1.09 2.972q0 1.882 1.189 3.071t3.666 1.189q1.981 0 3.071 -0.594 1.189 -0.694 1.783 -2.081 1.882 0.991 4.954 2.279 -1.189 2.873 -3.963 4.062 -2.774 1.09 -6.044 1.09M98.48 47.556v-3.864h10.205V53.5h-4.26l-0.495 -4.161q-0.694 2.18 -2.477 3.269 -1.882 1.09 -4.458 1.09 -2.477 0 -4.359 -0.991 -1.783 -1.09 -2.873 -3.071 -1.09 -2.081 -1.09 -4.656 0 -4.26 2.576 -6.737t7.926 -2.477q3.071 0 5.35 0.991 2.378 0.991 4.062 3.071 -1.09 0.594 -4.26 2.18l-0.594 0.297q-0.892 -0.892 -2.081 -1.288 -1.288 -0.495 -2.675 -0.495 -2.279 0 -3.369 1.189t-1.09 2.972q0 1.882 1.189 3.071 1.189 1.09 3.666 1.09 1.09 0 2.081 -0.297t1.684 -0.991zm27.245 -0.793v2.774q0 0.793 0.198 1.189 0.198 0.297 0.793 0.396l-0.099 2.279q-0.793 0.099 -1.288 0.198h-1.486q-2.081 0 -2.774 -0.892 -0.594 -0.892 -0.594 -2.378v-0.594q-0.694 1.981 -2.081 2.972 -1.288 0.892 -3.369 0.892 -2.378 0 -3.567 -0.892 -1.189 -0.991 -1.189 -2.873 0 -1.585 1.09 -2.378 0.991 -0.892 3.071 -1.288 -1.783 -1.288 -3.567 -2.18 1.387 -1.783 3.269 -2.774 1.783 -0.892 4.458 -0.892 3.666 0 5.35 1.585 1.783 1.486 1.783 4.855m-6.638 -2.279q-1.189 0 -2.18 0.396 -0.892 0.396 -1.684 1.189 1.486 -0.198 3.567 -0.198 0.892 0 1.288 -0.198 0.297 -0.198 0.297 -0.495t-0.297 -0.495q-0.396 -0.198 -0.991 -0.198m-2.477 5.251q1.288 0 2.378 -0.495t1.486 -1.387v-0.594q-0.594 0.297 -1.288 0.495 -0.694 0.099 -1.684 0.297l-0.793 0.099q-1.387 0.297 -1.387 0.892 0 0.694 1.288 0.694m22.292 -9.214v4.26q-2.18 -0.198 -3.963 -0.198v2.477q0 1.288 0.495 2.081 0.594 0.694 1.981 0.694 0.594 0 1.09 -0.099 -0.099 0.892 -0.099 1.783v1.981q-0.991 0.099 -1.684 0.198h-1.882q-2.774 0 -3.963 -1.288 -1.09 -1.387 -1.09 -3.765v-4.063l-2.378 0.198v-4.26q1.288 0 2.081 -0.694 0.892 -0.793 1.09 -1.882h6.44q-1.189 1.585 -2.675 2.576zm16.942 7.034h-10.7q0.198 1.09 0.892 1.684 0.793 0.694 2.18 0.694 0.991 0 1.882 -0.396t1.387 -1.09q1.585 0.793 4.26 1.684 -0.793 1.585 -2.675 2.675 -1.981 0.892 -5.053 0.892 -4.062 0 -6.044 -1.783 -1.882 -1.882 -1.882 -4.954 0 -2.972 1.882 -4.855 1.981 -1.783 6.044 -1.783 2.378 0 4.161 0.793t2.774 2.279q0.892 1.387 0.892 3.269zm-7.53 -3.666q-1.189 0 -1.981 0.396 -0.694 0.495 -0.991 1.288h5.548q-0.297 -0.793 -0.892 -1.189 -0.694 -0.495 -1.684 -0.495m20.112 -3.369 1.387 9.313 1.981 -9.313h4.756L173.974 53.5h-6.341l-1.585 -6.044 -1.684 6.044h-6.044l-2.675 -12.979h4.756l1.981 9.313 1.387 -9.313zm24.273 6.242v2.774q0 0.793 0.198 1.189 0.198 0.297 0.793 0.396l-0.099 2.279q-0.793 0.099 -1.288 0.198h-1.486q-2.081 0 -2.774 -0.892 -0.594 -0.892 -0.594 -2.378v-0.594q-0.694 1.981 -2.081 2.972 -1.288 0.892 -3.369 0.892 -2.378 0 -3.567 -0.892 -1.189 -0.991 -1.189 -2.873 0 -1.585 0.991 -2.378 1.09 -0.892 3.17 -1.288 -1.783 -1.288 -3.567 -2.18 1.387 -1.783 3.269 -2.774 1.783 -0.892 4.458 -0.892 3.666 0 5.35 1.585 1.783 1.486 1.783 4.855m-6.638 -2.279q-1.288 0 -2.18 0.396t-1.684 1.189q1.486 -0.198 3.567 -0.198 0.892 0 1.288 -0.198 0.297 -0.198 0.297 -0.495t-0.297 -0.495q-0.396 -0.198 -0.991 -0.198m-2.477 5.251q1.288 0 2.378 -0.495t1.486 -1.387v-0.594q-0.594 0.297 -1.288 0.495 -0.694 0.099 -1.684 0.297l-0.892 0.099q-1.288 0.297 -1.288 0.892 0 0.694 1.288 0.694m21.697 -9.214h5.449l-0.495 1.387q-2.279 6.044 -4.756 11.592 -1.288 2.873 -3.666 4.557 -2.477 1.783 -6.143 1.684 -0.396 -1.981 -0.793 -3.071 -0.198 -1.09 -0.694 -2.279 1.288 0.297 2.477 0.297 1.783 0 2.873 -0.694 -0.793 -2.576 -1.981 -5.548 -1.189 -2.873 -3.369 -7.926h5.647q0.297 1.189 0.793 2.774t0.991 2.972q0.099 0.495 0.396 1.387 0.396 0.892 0.594 1.585l0.594 -1.882q1.783 -5.152 2.081 -6.836" id="     TWC Gateway"/></g></g></svg>