<svg version="1.2" xmlns="http://www.w3.org/2000/svg" viewBox="0 0 216 63" width="216" height="63">
	<title>wclogoname-svg</title>
	<style>
		.s0 { fill: #49b85b }
		.s1 { fill: #fde24b }
		.s2 { fill: #ef412e }
		.s3 { fill: #2cb8e6 }
		.s4 { fill: #7f3f98 }
	</style>
	<path id="Layer" class="s0" d="m81.4 55.9l-12.6-0.6c-0.4 0-0.6-0.4-0.6-0.8l0.4-34.8c0-0.4 0.3-0.8 0.7-0.8l15-0.1c0.4 0 0.7 0.4 0.6 0.9l-2.9 35.5c0 0.4-0.3 0.7-0.6 0.7z"/>
	<path id="Layer" class="s1" d="m53.3 33l-4.5-3.2c-0.3-0.2-0.7-0.1-1 0.2l-19.7 22.1c-0.3 0.3-0.3 0.8-0.1 1l5.7 5.3c0.3 0.2 0.8 0.1 1.1-0.3l18.5-24.1c0.3-0.4 0.3-0.8 0-1z"/>
	<path id="Layer" class="s2" d="m61.8 57.6l4.3-2.5c0.3-0.1 0.4-0.5 0.2-0.9l-9-19.3c-0.2-0.4-0.7-0.5-1-0.2l-4.8 4.5c-0.3 0.1-0.4 0.6-0.2 0.9l9.7 17.2c0.2 0.3 0.5 0.5 0.8 0.3z"/>
	<path id="Layer" class="s3" d="m24.9 58l-15-1.3c-0.3 0-0.6-0.3-0.6-0.7l-4.6-37.9c-0.1-0.5 0.2-0.9 0.6-0.9l20.1 0.3c0.4 0 0.6 0.4 0.6 0.8l-0.5 38.9c0.1 0.5-0.2 0.8-0.6 0.8z"/>
	<path id="Layer" class="s4" d="m24 13.7l-11.2-11c-0.3-0.3-0.7-0.2-0.9 0.2l-6.5 11c-0.3 0.5 0 1.3 0.5 1.3h17.7c0.7 0 0.9-1 0.4-1.5z"/>
	<path id="Layer" class="s3" d="m84.2 16.5l-14.7 0.1c-0.4 0-0.7-0.3-0.7-0.7l0.9-10c0-0.4 0.4-0.7 0.8-0.6l14.1 1.7c0.3 0.1 0.5 0.3 0.5 0.7l-0.2 8.2c0 0.4-0.3 0.6-0.7 0.6z"/>
	<g id="Layer">
	</g>
	<g id="Layer">
	</g>
	<g id="Layer">
		<path id="     TWC Gateway" class="s4" aria-label="     TWC
Gateway"  d="m134.1 8.6v5q-3.8-0.1-7.4-0.1v12.5h-6v-12.5q-3.5 0-7.3 0.1v-5zm17.4 0l1.8 10.8 1.3-10.8h5.9l-3.3 17.4h-7.3l-1.7-9.7-1.9 9.7h-7l-3.2-17.4h5.8l1.2 10.7 2-10.7zm20 17.6q-5.4 0-8-2.3-2.6-2.3-2.6-6.5 0-4.3 2.6-6.8 2.6-2.5 8-2.5 7.6 0 10.1 5.2-2.1 0.7-5 2.2-0.7-1.3-2.2-2-1.5-0.6-3.1-0.6-2.3 0-3.4 1.2-1.1 1.2-1.1 3 0 1.9 1.2 3.1 1.2 1.2 3.7 1.2 2 0 3.1-0.6 1.2-0.7 1.8-2.1 1.9 1 5 2.3-1.2 2.9-4 4.1-2.8 1.1-6.1 1.1zm-72.1 21.8v-3.9h10.3v9.9h-4.3l-0.5-4.2q-0.7 2.2-2.5 3.3-1.9 1.1-4.5 1.1-2.5 0-4.4-1-1.8-1.1-2.9-3.1-1.1-2.1-1.1-4.7 0-4.3 2.6-6.8 2.6-2.5 8-2.5 3.1 0 5.4 1 2.4 1 4.1 3.1-1.1 0.6-4.3 2.2l-0.6 0.3q-0.9-0.9-2.1-1.3-1.3-0.5-2.7-0.5-2.3 0-3.4 1.2-1.1 1.2-1.1 3 0 1.9 1.2 3.1 1.2 1.1 3.7 1.1 1.1 0 2.1-0.3 1-0.3 1.7-1zm27.5-0.8v2.8q0 0.8 0.2 1.2 0.2 0.3 0.8 0.4l-0.1 2.3q-0.8 0.1-1.3 0.2-0.6 0-1.5 0-2.1 0-2.8-0.9-0.6-0.9-0.6-2.4v-0.6q-0.7 2-2.1 3-1.3 0.9-3.4 0.9-2.4 0-3.6-0.9-1.2-1-1.2-2.9 0-1.6 1.1-2.4 1-0.9 3.1-1.3-1.8-1.3-3.6-2.2 1.4-1.8 3.3-2.8 1.8-0.9 4.5-0.9 3.7 0 5.4 1.6 1.8 1.5 1.8 4.9zm-6.7-2.3q-1.2 0-2.2 0.4-0.9 0.4-1.7 1.2 1.5-0.2 3.6-0.2 0.9 0 1.3-0.2 0.3-0.2 0.3-0.5 0-0.3-0.3-0.5-0.4-0.2-1-0.2zm-2.5 5.3q1.3 0 2.4-0.5 1.1-0.5 1.5-1.4v-0.6q-0.6 0.3-1.3 0.5-0.7 0.1-1.7 0.3l-0.8 0.1q-1.4 0.3-1.4 0.9 0 0.7 1.3 0.7zm22.5-9.3v4.3q-2.2-0.2-4-0.2v2.5q0 1.3 0.5 2.1 0.6 0.7 2 0.7 0.6 0 1.1-0.1-0.1 0.9-0.1 1.8 0 0.4 0 2-1 0.1-1.7 0.2-0.8 0-1.9 0-2.8 0-4-1.3-1.1-1.4-1.1-3.8v-4.1q-1.2 0.1-2.4 0.2v-4.3q1.3 0 2.1-0.7 0.9-0.8 1.1-1.9h6.5q-1.2 1.6-2.7 2.6zm17.1 7.1h-3-7.8q0.2 1.1 0.9 1.7 0.8 0.7 2.2 0.7 1 0 1.9-0.4 0.9-0.4 1.4-1.1 1.6 0.8 4.3 1.7-0.8 1.6-2.7 2.7-2 0.9-5.1 0.9-4.1 0-6.1-1.8-1.9-1.9-1.9-5 0-3 1.9-4.9 2-1.8 6.1-1.8 2.4 0 4.2 0.8 1.8 0.8 2.8 2.3 0.9 1.4 0.9 3.3 0 0.6 0 0.9zm-7.6-3.7q-1.2 0-2 0.4-0.7 0.5-1 1.3h5.6q-0.3-0.8-0.9-1.2-0.7-0.5-1.7-0.5zm20.3-3.4l1.4 9.4 2-9.4h4.8l-2.6 13.1h-6.4l-1.6-6.1-1.7 6.1h-6.1l-2.7-13.1h4.8l2 9.4 1.4-9.4zm24.5 6.3v2.8q0 0.8 0.2 1.2 0.2 0.3 0.8 0.4l-0.1 2.3q-0.8 0.1-1.3 0.2-0.6 0-1.5 0-2.1 0-2.8-0.9-0.6-0.9-0.6-2.4v-0.6q-0.7 2-2.1 3-1.3 0.9-3.4 0.9-2.4 0-3.6-0.9-1.2-1-1.2-2.9 0-1.6 1-2.4 1.1-0.9 3.2-1.3-1.8-1.3-3.6-2.2 1.4-1.8 3.3-2.8 1.8-0.9 4.5-0.9 3.7 0 5.4 1.6 1.8 1.5 1.8 4.9zm-6.7-2.3q-1.3 0-2.2 0.4-0.9 0.4-1.7 1.2 1.5-0.2 3.6-0.2 0.9 0 1.3-0.2 0.3-0.2 0.3-0.5 0-0.3-0.3-0.5-0.4-0.2-1-0.2zm-2.5 5.3q1.3 0 2.4-0.5 1.1-0.5 1.5-1.4v-0.6q-0.6 0.3-1.3 0.5-0.7 0.1-1.7 0.3l-0.9 0.1q-1.3 0.3-1.3 0.9 0 0.7 1.3 0.7zm21.9-9.3h5.5l-0.5 1.4q-2.3 6.1-4.8 11.7-1.3 2.9-3.7 4.6-2.5 1.8-6.2 1.7-0.4-2-0.8-3.1-0.2-1.1-0.7-2.3 1.3 0.3 2.5 0.3 1.8 0 2.9-0.7-0.8-2.6-2-5.6-1.2-2.9-3.4-8h5.7q0.3 1.2 0.8 2.8 0.5 1.6 1 3 0.1 0.5 0.4 1.4 0.4 0.9 0.6 1.6l0.6-1.9q1.8-5.2 2.1-6.9z"/>
	</g>
</svg>